<svg width="43" height="43" viewBox="0 0 43 43" fill="none" xmlns="http://www.w3.org/2000/svg">
<path fill-rule="evenodd" clip-rule="evenodd" d="M43 21.5C43 27.2022 40.7348 32.6708 36.7028 36.7028C32.6708 40.7348 27.2022 43 21.5 43C15.7978 43 10.3292 40.7348 6.2972 36.7028C2.26517 32.6708 0 27.2022 0 21.5C0 15.7978 2.26517 10.3292 6.2972 6.2972C10.3292 2.26517 15.7978 0 21.5 0C27.2022 0 32.6708 2.26517 36.7028 6.2972C40.7348 10.3292 43 15.7978 43 21.5ZM14.3889 22.4514C14.2639 22.5763 14.1156 22.6754 13.9524 22.743C13.7891 22.8106 13.6142 22.8454 13.4375 22.8454C13.2608 22.8454 13.0859 22.8106 12.9226 22.743C12.7594 22.6754 12.6111 22.5763 12.4861 22.4514C12.3612 22.3264 12.2621 22.1781 12.1945 22.0149C12.1269 21.8516 12.0921 21.6767 12.0921 21.5C12.0921 21.3233 12.1269 21.1484 12.1945 20.9851C12.2621 20.8219 12.3612 20.6736 12.4861 20.5486L20.5486 12.4861C20.6734 12.361 20.8217 12.2617 20.985 12.194C21.1482 12.1262 21.3232 12.0913 21.5 12.0913C21.6768 12.0913 21.8518 12.1262 22.015 12.194C22.1783 12.2617 22.3266 12.361 22.4514 12.4861L30.5139 20.5486C30.7662 20.8009 30.9079 21.1432 30.9079 21.5C30.9079 21.8568 30.7662 22.1991 30.5139 22.4514C30.2616 22.7037 29.9193 22.8454 29.5625 22.8454C29.2057 22.8454 28.8634 22.7037 28.6111 22.4514L22.8438 16.6813V29.5625C22.8438 29.9189 22.7022 30.2607 22.4502 30.5127C22.1982 30.7647 21.8564 30.9062 21.5 30.9062C21.1436 30.9062 20.8018 30.7647 20.5498 30.5127C20.2978 30.2607 20.1562 29.9189 20.1562 29.5625V16.6813L14.3889 22.4514Z" fill="#A2A2A2"/>
</svg>
