<svg width="43" height="43" viewBox="0 0 43 43" fill="none" xmlns="http://www.w3.org/2000/svg">
<path d="M39.0684 17.991H37.6252V17.9167H21.5002V25.0833H31.6258C30.1485 29.2552 26.1791 32.25 21.5002 32.25C15.5635 32.25 10.7502 27.4367 10.7502 21.5C10.7502 15.5633 15.5635 10.75 21.5002 10.75C24.2405 10.75 26.7336 11.7838 28.6319 13.4724L33.6996 8.4047C30.4997 5.42247 26.2194 3.58333 21.5002 3.58333C11.6057 3.58333 3.5835 11.6055 3.5835 21.5C3.5835 31.3945 11.6057 39.4167 21.5002 39.4167C31.3946 39.4167 39.4168 31.3945 39.4168 21.5C39.4168 20.2987 39.2932 19.126 39.0684 17.991Z" fill="#FFC107"/>
<path d="M5.64893 13.1607L11.5354 17.4777C13.1282 13.5342 16.9857 10.75 21.4998 10.75C24.2402 10.75 26.7333 11.7838 28.6315 13.4724L33.6993 8.4047C30.4993 5.42247 26.2191 3.58333 21.4998 3.58333C14.618 3.58333 8.64997 7.46856 5.64893 13.1607Z" fill="#FF3D00"/>
<path d="M21.5001 39.4167C26.128 39.4167 30.333 37.6456 33.5123 34.7655L27.9671 30.0731C26.1079 31.4871 23.836 32.2519 21.5001 32.25C16.84 32.25 12.8831 29.2785 11.3924 25.1317L5.5498 29.6333C8.51501 35.4356 14.5368 39.4167 21.5001 39.4167Z" fill="#4CAF50"/>
<path d="M39.0682 17.991H37.625V17.9167H21.5V25.0833H31.6256C30.919 27.0689 29.6461 28.8039 27.9643 30.074L27.967 30.0722L33.5122 34.7646C33.1199 35.1211 39.4167 30.4583 39.4167 21.5C39.4167 20.2987 39.293 19.126 39.0682 17.991Z" fill="#1976D2"/>
</svg>
