<svg width="35" height="41" viewBox="0 0 35 41" fill="none" xmlns="http://www.w3.org/2000/svg">
<path d="M29.691 3.19134C27.786 1.03518 24.3423 0.110779 19.9368 0.110779H7.15091C6.71503 0.110795 6.29345 0.265213 5.96196 0.546271C5.63048 0.827329 5.41084 1.21659 5.34253 1.64407L0.0186982 35.1727C-0.0871221 35.8339 0.428444 36.4326 1.10329 36.4326H8.99688L10.9793 23.9464L10.9178 24.3374C11.059 23.4548 11.8192 22.8039 12.7193 22.8039H16.4703C23.8392 22.8039 29.6092 19.8318 31.2946 11.2341C31.3447 10.9799 31.388 10.7324 31.4255 10.4906C31.2127 10.3787 31.2127 10.3787 31.4255 10.4906C31.9274 7.3128 31.422 5.14971 29.691 3.19134Z" fill="#27346A"/>
<path d="M13.9997 9.34582C14.2155 9.24379 14.4515 9.19091 14.6905 9.19106H24.7145C25.9015 9.19106 27.0086 9.26776 28.0203 9.42945C28.3034 9.47428 28.5851 9.52779 28.8649 9.58992C29.2614 9.67681 29.6533 9.78315 30.0393 9.90856C30.5366 10.0735 30.9999 10.2656 31.4256 10.4906C31.9274 7.31157 31.422 5.14971 29.691 3.19134C27.7849 1.03518 24.3423 0.110779 19.9368 0.110779H7.14981C6.24952 0.110779 5.48362 0.76162 5.34253 1.64407L0.018699 35.1715C-0.0871213 35.8337 0.428445 36.4316 1.1022 36.4316H8.99688L13.1098 10.5324C13.1502 10.2778 13.2524 10.0368 13.4074 9.83012C13.5624 9.62343 13.7657 9.45723 13.9997 9.34582Z" fill="#27346A"/>
<path d="M31.2944 11.2341C29.6089 19.8306 23.8391 22.8039 16.4701 22.8039H12.718C11.8179 22.8039 11.0576 23.4549 10.9177 24.3374L8.45145 39.8625C8.3593 40.4411 8.80992 40.9654 9.39945 40.9654H16.0536C16.4347 40.9653 16.8033 40.8301 17.0931 40.5843C17.3829 40.3384 17.5749 39.9979 17.6344 39.6241L17.6992 39.2874L18.9534 31.3947L19.0342 30.9585C19.0937 30.5847 19.2856 30.2442 19.5754 29.9984C19.8652 29.7525 20.2338 29.6173 20.6149 29.6172H21.6108C28.0566 29.6172 33.1039 27.0168 34.5788 19.4962C35.1945 16.3533 34.8759 13.7293 33.2473 11.8862C32.7533 11.3279 32.1399 10.8669 31.4253 10.4906C31.3866 10.7336 31.3446 10.9799 31.2944 11.2341Z" fill="#2790C3"/>
<path d="M29.6616 9.79221C29.3988 9.71601 29.1335 9.64854 28.8662 9.58993C28.5862 9.52881 28.3046 9.47566 28.0216 9.43054C27.0088 9.26776 25.9025 9.19092 24.7144 9.19092H14.6917C14.4525 9.19038 14.2163 9.24372 14.0009 9.34691C13.7666 9.45797 13.5631 9.62407 13.408 9.83082C13.2529 10.0376 13.1509 10.2788 13.1108 10.5335L10.9805 23.9464L10.9189 24.3374C11.0591 23.4548 11.8192 22.8039 12.7195 22.8039H16.4716C23.8405 22.8039 29.6103 19.8318 31.2958 11.2341C31.346 10.9799 31.3881 10.7334 31.4268 10.4906C30.9999 10.2668 30.538 10.0735 30.0404 9.90964C29.9149 9.86832 29.7886 9.82917 29.6617 9.79221" fill="#1F264F"/>
</svg>
