<svg width="33" height="33" viewBox="0 0 33 33" fill="none" xmlns="http://www.w3.org/2000/svg">
<path d="M16.5 2.75C8.91 2.75 2.75 8.91 2.75 16.5C2.75 24.09 8.91 30.25 16.5 30.25C24.09 30.25 30.25 24.09 30.25 16.5C30.25 8.91 24.09 2.75 16.5 2.75ZM16.5 6.875C18.7825 6.875 20.625 8.7175 20.625 11C20.625 13.2825 18.7825 15.125 16.5 15.125C14.2175 15.125 12.375 13.2825 12.375 11C12.375 8.7175 14.2175 6.875 16.5 6.875ZM16.5 26.4C13.0625 26.4 10.0237 24.64 8.25 21.9725C8.29125 19.2362 13.75 17.7375 16.5 17.7375C19.2362 17.7375 24.7087 19.2362 24.75 21.9725C22.9762 24.64 19.9375 26.4 16.5 26.4Z" fill="white"/>
</svg>
