<svg width="48" height="21" viewBox="0 0 48 21" fill="none" xmlns="http://www.w3.org/2000/svg">
<path d="M2.303 10.6866C2.20312 10.6866 2.11941 10.7703 2.10325 10.8761L1.645 15.0987L2.10325 19.223C2.11941 19.3302 2.20312 19.4154 2.303 19.4154C2.40287 19.4154 2.47925 19.3317 2.49247 19.223L2.99038 15.0987L2.46309 10.8761C2.46309 10.7703 2.37938 10.6866 2.28684 10.6866H2.303ZM0.52875 12.3081C0.412719 12.3081 0.3525 12.3772 0.321656 12.4902L0 15.0987L0.321656 17.6544C0.321656 17.7704 0.414187 17.8468 0.497906 17.8468C0.590437 17.8468 0.674156 17.7543 0.703531 17.6397L1.11625 15.0547L0.703531 12.4462C0.703531 12.3228 0.619813 12.2699 0.52875 12.2699V12.3081ZM4.10809 9.85972C3.99206 9.85972 3.8775 9.95225 3.8775 10.0653L3.46625 15.0841L3.901 19.8957C3.901 20.0088 3.99353 20.1322 4.13747 20.1322C4.26084 20.1322 4.34456 20.0088 4.37394 19.8957L4.87184 15.0532L4.37394 10.058C4.34456 9.94491 4.25203 9.82887 4.13747 9.82887L4.10809 9.85972ZM5.99103 9.65262C5.84416 9.65262 5.72225 9.76865 5.69141 9.9214L5.31687 15.0855L5.72959 20.0734C5.75897 20.2188 5.875 20.3392 6.01894 20.3392C6.16288 20.3392 6.28772 20.2173 6.31122 20.0499L6.78562 15.0855L6.31122 9.95225C6.3118 9.91753 6.30554 9.88304 6.29279 9.85074C6.28004 9.81844 6.26105 9.78897 6.23691 9.76401C6.21277 9.73905 6.18395 9.71909 6.15209 9.70527C6.12024 9.69145 6.08597 9.68404 6.05125 9.68347L5.99103 9.65262ZM8.25437 10.3576C8.24949 10.2781 8.21434 10.2035 8.15616 10.1492C8.09797 10.0948 8.02116 10.0648 7.94153 10.0653C7.76528 10.0653 7.62869 10.1814 7.61988 10.3576L7.191 15.1149L7.58022 20.1336C7.58022 20.3099 7.73297 20.4465 7.89306 20.4465C8.03847 20.4465 8.18534 20.3099 8.18534 20.1336L8.62744 15.1149L8.18534 10.3268L8.25437 10.3576ZM9.83622 7.01475C9.74382 7.01699 9.65583 7.05469 9.59048 7.12004C9.52513 7.18539 9.48742 7.27338 9.48519 7.36578L9.07247 15.1149L9.43819 20.1336C9.43819 20.3099 9.59094 20.4553 9.79069 20.4553C9.97428 20.4553 10.127 20.279 10.1432 20.1028L10.5486 15.0855L10.1432 7.30556C10.127 7.09994 9.96694 6.95306 9.79069 6.95306L9.83622 7.01475ZM11.6663 5.16119C11.4607 5.16119 11.2844 5.33744 11.2682 5.54453L10.9158 15.0841L11.2374 20.0719C11.2374 20.3084 11.4137 20.4832 11.6208 20.4832C11.8264 20.4832 12.0026 20.3084 12.0335 20.0719L12.4153 15.0841L12.0335 5.57391C12.0026 5.33744 11.8264 5.16119 11.6281 5.16119H11.6663ZM13.5639 4.28287C13.3274 4.28287 13.1512 4.45912 13.1189 4.68825L12.7972 15.0224L13.1189 19.9574C13.1497 20.1865 13.326 20.4024 13.5639 20.4024C13.6795 20.3979 13.7891 20.3493 13.8699 20.2665C13.9508 20.1837 13.9969 20.0731 13.9987 19.9574L14.382 15.0224L13.9987 4.68825C13.995 4.57397 13.9481 4.46534 13.8674 4.38435C13.7866 4.30337 13.6782 4.25607 13.5639 4.25203V4.28287ZM15.9962 4.33575C15.9963 4.27455 15.9844 4.21392 15.9611 4.15735C15.9378 4.10077 15.9035 4.04937 15.8602 4.00609C15.8169 3.96282 15.7655 3.92853 15.709 3.9052C15.6524 3.88187 15.5918 3.86996 15.5306 3.87016C15.2941 3.87016 15.0562 4.07725 15.0562 4.33575L14.7639 14.993L15.0562 19.8972C15.066 20.0247 15.1231 20.1441 15.2163 20.2318C15.3094 20.3196 15.432 20.3694 15.5599 20.3716C15.622 20.3718 15.6835 20.3596 15.7408 20.3357C15.7982 20.3119 15.8502 20.2769 15.8938 20.2327C15.9374 20.1885 15.9718 20.1361 15.9949 20.0785C16.018 20.0209 16.0294 19.9592 16.0285 19.8972L16.3501 14.993L16.0285 4.31372L15.9962 4.33575ZM17.4649 4.07725C17.3344 4.08056 17.2101 4.13369 17.1175 4.22572C17.0249 4.31776 16.9711 4.44174 16.967 4.57222L16.6688 15.0003L16.967 19.8413C16.967 20.1336 17.1961 20.3392 17.4649 20.3392C17.7337 20.3392 17.9628 20.1028 17.9628 19.812L18.261 14.9607L17.932 4.57222C17.9324 4.50287 17.919 4.43413 17.8926 4.36998C17.8663 4.30583 17.8274 4.24755 17.7784 4.19851C17.7294 4.14947 17.6711 4.11064 17.6069 4.08428C17.5428 4.05792 17.474 4.04455 17.4047 4.04494L17.4649 4.07725ZM19.3699 4.36659C19.2228 4.36776 19.0821 4.42712 18.9786 4.53171C18.8751 4.63629 18.8172 4.77759 18.8176 4.92472L18.612 15.0003L18.8808 19.8413C18.8806 19.9141 18.8949 19.9861 18.9231 20.0532C18.9512 20.1203 18.9925 20.181 19.0446 20.2319C19.0966 20.2827 19.1584 20.3225 19.2261 20.349C19.2938 20.3756 19.3662 20.3882 19.4389 20.3862C19.7282 20.3862 19.9662 20.1498 19.9897 19.8281L20.2262 15.0459L19.9662 5.03341C19.9442 4.71175 19.7003 4.47528 19.4081 4.47528L19.3699 4.36659ZM21.7257 2.62172C21.6265 2.56574 21.5144 2.53633 21.4004 2.53633C21.2864 2.53633 21.1744 2.56574 21.0751 2.62172C20.9883 2.67328 20.916 2.74598 20.8649 2.83305C20.8137 2.92011 20.7855 3.0187 20.7828 3.11963V3.243L20.5845 15.0855L20.8063 19.881V19.8972C20.8176 20.0263 20.8684 20.1489 20.9517 20.2482C21.01 20.3124 21.0809 20.364 21.16 20.3996C21.2391 20.4352 21.3247 20.4542 21.4114 20.4553C21.5633 20.447 21.7072 20.3845 21.8168 20.279C21.9341 20.1607 21.9996 20.0006 21.9989 19.834L22.0224 19.3684L22.2516 15.0547L21.9916 3.13578C21.9897 3.04215 21.9643 2.9505 21.9179 2.86918C21.8714 2.78785 21.8054 2.71944 21.7257 2.67019V2.62172ZM23.6924 1.551C23.6542 1.51285 23.6085 1.48308 23.5582 1.46361C23.5079 1.44413 23.454 1.43538 23.4001 1.43791C23.2544 1.43371 23.1107 1.47308 22.9874 1.551C22.9171 1.60908 22.8603 1.68169 22.8207 1.76384C22.7812 1.84598 22.7599 1.93572 22.7583 2.02687V2.07975L22.4895 15.0224L22.6364 17.4017L22.7583 19.7209C22.7654 19.8867 22.8361 20.0433 22.9556 20.1584C23.075 20.2735 23.2342 20.3383 23.4001 20.3392C23.7526 20.3392 24.042 20.0411 24.042 19.6886L24.3416 14.9607L24.042 1.96372C24.0369 1.85392 24.005 1.74705 23.9489 1.65254C23.8928 1.55802 23.8143 1.47876 23.7203 1.42175L23.6924 1.551ZM41.2175 8.81837C40.4303 8.81837 39.6651 8.98728 38.9909 9.27809C38.762 6.7425 37.5927 4.38431 35.7129 2.66733C33.8331 0.950351 31.3789 -0.00113817 28.833 1.02176e-06C27.5391 1.02176e-06 26.2701 0.265843 25.1303 0.703531C24.6853 0.879781 24.6016 1.05603 24.5722 1.40706V19.7503C24.6016 20.1028 24.8615 20.4024 25.2228 20.4318H41.2484C42.0032 20.4388 42.752 20.2958 43.4511 20.0111C44.1503 19.7264 44.7859 19.3056 45.3211 18.7733C45.8563 18.2409 46.2805 17.6076 46.5689 16.91C46.8574 16.2124 47.0044 15.4644 47.0015 14.7095C47.0034 13.9521 46.8561 13.2017 46.568 12.5012C46.28 11.8007 45.8567 11.1637 45.3225 10.6268C44.7883 10.0898 44.1535 9.66336 43.4545 9.37172C42.7555 9.08008 42.0058 8.92899 41.2484 8.92706L41.2175 8.81837Z" fill="#242424"/>
</svg>
