<svg width="42" height="42" viewBox="0 0 42 42" fill="none" xmlns="http://www.w3.org/2000/svg">
<path d="M20.5625 0C9.20723 0 0 9.20723 0 20.5625C0 31.9178 9.20723 41.125 20.5625 41.125C31.9178 41.125 41.125 31.9178 41.125 20.5625C41.125 9.20723 31.9178 0 20.5625 0ZM30.4444 15.4999C30.4582 15.7156 30.4582 15.9405 30.4582 16.1608C30.4582 22.8987 25.3268 30.6602 15.9497 30.6602C13.0581 30.6602 10.3776 29.8202 8.11943 28.3744C8.53252 28.4203 8.92725 28.4387 9.34951 28.4387C11.7362 28.4387 13.9302 27.6309 15.6789 26.2631C13.4391 26.2172 11.5572 24.7484 10.9146 22.7289C11.6995 22.8437 12.4063 22.8437 13.2142 22.6371C12.0609 22.4028 11.0242 21.7764 10.2804 20.8644C9.53658 19.9524 9.13143 18.811 9.13379 17.6342V17.5699C9.8085 17.9509 10.6025 18.185 11.4333 18.2171C10.7349 17.7517 10.1622 17.1211 9.76586 16.3813C9.36954 15.6415 9.16189 14.8153 9.16133 13.9761C9.16133 13.026 9.40918 12.1585 9.85439 11.4058C11.1345 12.9816 12.7319 14.2705 14.5428 15.1886C16.3536 16.1066 18.3374 16.6334 20.3651 16.7346C19.6445 13.2692 22.2332 10.4648 25.3451 10.4648C26.8139 10.4648 28.1357 11.0799 29.0675 12.0713C30.2195 11.8556 31.3211 11.4241 32.3033 10.8458C31.9224 12.0254 31.1237 13.0214 30.0635 13.6502C31.0916 13.54 32.083 13.2555 33.001 12.8562C32.3079 13.8751 31.4404 14.7793 30.4444 15.4999V15.4999Z" fill="#242424"/>
</svg>
