<svg width="43" height="31" viewBox="0 0 43 31" fill="none" xmlns="http://www.w3.org/2000/svg">
<path d="M41.9802 4.69424C41.7361 3.78524 41.2576 2.95629 40.5925 2.29035C39.9274 1.6244 39.099 1.14483 38.1903 0.89961C34.8455 1.82539e-07 21.4375 0 21.4375 0C21.4375 0 8.02949 -1.82539e-07 4.68467 0.894824C3.77559 1.13925 2.94682 1.61856 2.28159 2.28462C1.61636 2.95069 1.1381 3.78006 0.894824 4.68945C-1.82539e-07 8.03906 0 15.0254 0 15.0254C0 15.0254 -1.82539e-07 22.0117 0.894824 25.3565C1.3877 27.2036 2.84238 28.6583 4.68467 29.1512C8.02949 30.0508 21.4375 30.0508 21.4375 30.0508C21.4375 30.0508 34.8455 30.0508 38.1903 29.1512C40.0374 28.6583 41.4873 27.2036 41.9802 25.3565C42.875 22.0117 42.875 15.0254 42.875 15.0254C42.875 15.0254 42.875 8.03906 41.9802 4.69424ZM17.1787 21.4375V8.61328L28.2803 14.9775L17.1787 21.4375Z" fill="#242424"/>
</svg>
